<svg xmlns="http://www.w3.org/2000/svg" viewBox="0 0 400 500">
  <!-- Dragon Legs - Chunky, cute, front-facing -->

  <!-- Left leg -->
  <path d="M 120 320 Q 112 330 108 370 Q 105 420 108 450 Q 110 470 120 475 L 145 478 Q 152 475 150 465 L 140 460 Q 142 430 145 380 Q 148 345 155 325 Z" fill="#7B68EE" stroke="#333" stroke-width="3.5" stroke-linejoin="round"/>
  <!-- Left foot pad -->
  <ellipse cx="130" cy="476" rx="28" ry="12" fill="#6A5ACD" stroke="#333" stroke-width="3"/>
  <!-- Left toes/claws -->
  <path d="M 108 478 Q 100 488 102 492 Q 106 494 112 486" fill="#FFD700" stroke="#333" stroke-width="2.5" stroke-linejoin="round"/>
  <path d="M 125 480 Q 122 492 124 496 Q 128 497 132 488" fill="#FFD700" stroke="#333" stroke-width="2.5" stroke-linejoin="round"/>
  <path d="M 143 479 Q 146 490 144 494 Q 140 495 137 487" fill="#FFD700" stroke="#333" stroke-width="2.5" stroke-linejoin="round"/>

  <!-- Right leg -->
  <path d="M 245 325 Q 252 345 255 380 Q 258 430 260 460 L 262 465 Q 260 475 252 478 L 278 478 Q 288 475 290 470 Q 293 450 292 420 Q 290 370 285 330 Q 282 320 280 320 Z" fill="#7B68EE" stroke="#333" stroke-width="3.5" stroke-linejoin="round"/>
  <!-- Right foot pad -->
  <ellipse cx="270" cy="476" rx="28" ry="12" fill="#6A5ACD" stroke="#333" stroke-width="3"/>
  <!-- Right toes/claws -->
  <path d="M 252 478 Q 244 488 246 492 Q 250 494 256 486" fill="#FFD700" stroke="#333" stroke-width="2.5" stroke-linejoin="round"/>
  <path d="M 268 480 Q 265 492 267 496 Q 271 497 275 488" fill="#FFD700" stroke="#333" stroke-width="2.5" stroke-linejoin="round"/>
  <path d="M 285 479 Q 288 490 286 494 Q 282 495 279 487" fill="#FFD700" stroke="#333" stroke-width="2.5" stroke-linejoin="round"/>

  <!-- Knee highlights for roundness -->
  <ellipse cx="132" cy="390" rx="10" ry="14" fill="#8B7BF0" stroke="none" opacity="0.5"/>
  <ellipse cx="268" cy="390" rx="10" ry="14" fill="#8B7BF0" stroke="none" opacity="0.5"/>
</svg>