<svg xmlns="http://www.w3.org/2000/svg" viewBox="0 0 400 500">
  <!-- Rubber Ducky Tail - tiny and adorable! -->

  <!-- Tail base - connects to body area -->
  <path d="M290,262 C298,258 310,252 318,248 C325,250 322,265 315,270 C308,274 296,272 290,268Z" fill="#FFD700" stroke="#222" stroke-width="3" stroke-linejoin="round"/>

  <!-- Tail feather 1 - center, tallest -->
  <path d="M318,248 C322,235 328,218 325,205 C330,202 336,210 335,225 C340,218 342,208 340,198 C346,200 348,215 345,232 C342,245 332,255 322,258Z" fill="#FFD700" stroke="#222" stroke-width="3" stroke-linejoin="round"/>

  <!-- Tail feather 2 - left/lower -->
  <path d="M308,255 C312,245 316,232 314,222 C320,220 322,230 320,242 C318,250 312,258 308,260Z" fill="#FFC000" stroke="#222" stroke-width="3" stroke-linejoin="round"/>

  <!-- Tail feather 3 - right/upper -->
  <path d="M335,240 C342,228 350,215 348,205 C354,204 356,216 352,230 C349,240 342,248 338,248Z" fill="#FFC000" stroke="#222" stroke-width="3" stroke-linejoin="round"/>

  <!-- Feather detail lines -->
  <path d="M320,238 C322,228 324,218 323,210" fill="none" stroke="#E8B400" stroke-width="2.5" stroke-linecap="round"/>
  <path d="M338,232 C340,222 342,214 341,208" fill="none" stroke="#E8B400" stroke-width="2.5" stroke-linecap="round"/>
  <path d="M312,248 C314,240 315,232 314,226" fill="none" stroke="#E8B400" stroke-width="2" stroke-linecap="round"/>

  <!-- Tiny cute feather tip accents -->
  <circle cx="325" cy="203" r="3.5" fill="#FFD700" stroke="#222" stroke-width="2"/>
  <circle cx="340" cy="196" r="3" fill="#FFC000" stroke="#222" stroke-width="2"/>
  <circle cx="348" cy="203" r="3" fill="#FFD700" stroke="#222" stroke-width="2"/>
</svg>