<svg xmlns="http://www.w3.org/2000/svg" viewBox="0 0 400 500">
  <!-- Peacock Tail: elaborate colorful fan -->
  <!-- Tail stem -->
  <path d="M295,260 C310,250 320,235 325,220"
        fill="none" stroke="#1E90FF" stroke-width="5" stroke-linecap="round"/>

  <!-- Fan feathers - outer ring -->
  <ellipse cx="355" cy="100" rx="22" ry="45" fill="#1E90FF" stroke="#2A2A2A" stroke-width="3" transform="rotate(20,355,100)"/>
  <ellipse cx="380" cy="140" rx="22" ry="45" fill="#32CD32" stroke="#2A2A2A" stroke-width="3" transform="rotate(35,380,140)"/>
  <ellipse cx="390" cy="190" rx="22" ry="45" fill="#00CED1" stroke="#2A2A2A" stroke-width="3" transform="rotate(50,390,190)"/>
  <ellipse cx="375" cy="60" rx="20" ry="42" fill="#32CD32" stroke="#2A2A2A" stroke-width="3" transform="rotate(5,375,60)"/>
  <ellipse cx="320" cy="55" rx="20" ry="42" fill="#00CED1" stroke="#2A2A2A" stroke-width="3" transform="rotate(-15,320,55)"/>
  <ellipse cx="285" cy="80" rx="20" ry="42" fill="#1E90FF" stroke="#2A2A2A" stroke-width="3" transform="rotate(-30,285,80)"/>
  <ellipse cx="265" cy="120" rx="20" ry="42" fill="#32CD32" stroke="#2A2A2A" stroke-width="3" transform="rotate(-42,265,120)"/>

  <!-- Inner fan feathers -->
  <ellipse cx="340" cy="95" rx="15" ry="35" fill="#00CED1" stroke="#2A2A2A" stroke-width="2.5" transform="rotate(12,340,95)"/>
  <ellipse cx="365" cy="120" rx="15" ry="35" fill="#1E90FF" stroke="#2A2A2A" stroke-width="2.5" transform="rotate(28,365,120)"/>
  <ellipse cx="370" cy="165" rx="15" ry="35" fill="#32CD32" stroke="#2A2A2A" stroke-width="2.5" transform="rotate(45,370,165)"/>
  <ellipse cx="300" cy="85" rx="15" ry="35" fill="#32CD32" stroke="#2A2A2A" stroke-width="2.5" transform="rotate(-20,300,85)"/>
  <ellipse cx="278" cy="115" rx="15" ry="35" fill="#00CED1" stroke="#2A2A2A" stroke-width="2.5" transform="rotate(-35,278,115)"/>

  <!-- Eye spots on feathers -->
  <circle cx="355" cy="72" r="8" fill="#1E90FF" stroke="#2A2A2A" stroke-width="2"/>
  <circle cx="355" cy="72" r="4" fill="#FFD700"/>
  <circle cx="380" cy="110" r="8" fill="#32CD32" stroke="#2A2A2A" stroke-width="2"/>
  <circle cx="380" cy="110" r="4" fill="#FFD700"/>
  <circle cx="390" cy="160" r="8" fill="#00CED1" stroke="#2A2A2A" stroke-width="2"/>
  <circle cx="390" cy="160" r="4" fill="#FFD700"/>
  <circle cx="320" cy="50" r="7" fill="#00CED1" stroke="#2A2A2A" stroke-width="2"/>
  <circle cx="320" cy="50" r="3.5" fill="#FFD700"/>
  <circle cx="285" cy="60" r="7" fill="#1E90FF" stroke="#2A2A2A" stroke-width="2"/>
  <circle cx="285" cy="60" r="3.5" fill="#FFD700"/>
  <circle cx="265" cy="95" r="7" fill="#32CD32" stroke="#2A2A2A" stroke-width="2"/>
  <circle cx="265" cy="95" r="3.5" fill="#FFD700"/>
  <circle cx="375" cy="35" r="7" fill="#32CD32" stroke="#2A2A2A" stroke-width="2"/>
  <circle cx="375" cy="35" r="3.5" fill="#FFD700"/>

  <!-- Central hub where feathers meet -->
  <circle cx="325" cy="200" r="12" fill="#1E90FF" stroke="#2A2A2A" stroke-width="3"/>
</svg>