<svg xmlns="http://www.w3.org/2000/svg" viewBox="0 0 400 500">
  <!-- Peacock Tail: elaborate colorful fan spreading from right side of body -->

  <!-- Fan feathers - outer ring, fanning out from hub at ~(330, 280) -->
  <ellipse cx="370" cy="170" rx="22" ry="45" fill="#1E90FF" stroke="#2A2A2A" stroke-width="3" transform="rotate(25,370,170)"/>
  <ellipse cx="390" cy="215" rx="22" ry="45" fill="#32CD32" stroke="#2A2A2A" stroke-width="3" transform="rotate(40,390,215)"/>
  <ellipse cx="392" cy="265" rx="22" ry="45" fill="#00CED1" stroke="#2A2A2A" stroke-width="3" transform="rotate(55,392,265)"/>
  <ellipse cx="380" cy="315" rx="22" ry="45" fill="#1E90FF" stroke="#2A2A2A" stroke-width="3" transform="rotate(70,380,315)"/>
  <ellipse cx="350" cy="140" rx="20" ry="42" fill="#32CD32" stroke="#2A2A2A" stroke-width="3" transform="rotate(10,350,140)"/>
  <ellipse cx="355" cy="350" rx="20" ry="42" fill="#00CED1" stroke="#2A2A2A" stroke-width="3" transform="rotate(82,355,350)"/>
  <ellipse cx="330" cy="125" rx="18" ry="38" fill="#00CED1" stroke="#2A2A2A" stroke-width="3" transform="rotate(-5,330,125)"/>

  <!-- Inner fan feathers -->
  <ellipse cx="358" cy="185" rx="15" ry="35" fill="#00CED1" stroke="#2A2A2A" stroke-width="2.5" transform="rotate(18,358,185)"/>
  <ellipse cx="375" cy="230" rx="15" ry="35" fill="#1E90FF" stroke="#2A2A2A" stroke-width="2.5" transform="rotate(35,375,230)"/>
  <ellipse cx="378" cy="280" rx="15" ry="35" fill="#32CD32" stroke="#2A2A2A" stroke-width="2.5" transform="rotate(50,378,280)"/>
  <ellipse cx="368" cy="325" rx="15" ry="35" fill="#1E90FF" stroke="#2A2A2A" stroke-width="2.5" transform="rotate(68,368,325)"/>
  <ellipse cx="340" cy="150" rx="14" ry="32" fill="#32CD32" stroke="#2A2A2A" stroke-width="2.5" transform="rotate(5,340,150)"/>

  <!-- Eye spots on outer feathers -->
  <circle cx="370" cy="142" r="8" fill="#1E90FF" stroke="#2A2A2A" stroke-width="2"/>
  <circle cx="370" cy="142" r="4" fill="#FFD700"/>
  <circle cx="392" cy="188" r="8" fill="#32CD32" stroke="#2A2A2A" stroke-width="2"/>
  <circle cx="392" cy="188" r="4" fill="#FFD700"/>
  <circle cx="395" cy="238" r="8" fill="#00CED1" stroke="#2A2A2A" stroke-width="2"/>
  <circle cx="395" cy="238" r="4" fill="#FFD700"/>
  <circle cx="384" cy="288" r="8" fill="#1E90FF" stroke="#2A2A2A" stroke-width="2"/>
  <circle cx="384" cy="288" r="4" fill="#FFD700"/>
  <circle cx="350" cy="118" r="7" fill="#00CED1" stroke="#2A2A2A" stroke-width="2"/>
  <circle cx="350" cy="118" r="3.5" fill="#FFD700"/>
  <circle cx="330" cy="100" r="7" fill="#32CD32" stroke="#2A2A2A" stroke-width="2"/>
  <circle cx="330" cy="100" r="3.5" fill="#FFD700"/>
  <circle cx="360" cy="328" r="7" fill="#00CED1" stroke="#2A2A2A" stroke-width="2"/>
  <circle cx="360" cy="328" r="3.5" fill="#FFD700"/>

  <!-- Tail stem connecting to body -->
  <path d="M295,285 C310,282 320,278 330,275"
        fill="none" stroke="#1E90FF" stroke-width="5" stroke-linecap="round"/>

  <!-- Central hub where feathers meet -->
  <circle cx="330" cy="275" r="14" fill="#1E90FF" stroke="#2A2A2A" stroke-width="3"/>
  <circle cx="330" cy="275" r="7" fill="#00CED1"/>
</svg>
