<svg xmlns="http://www.w3.org/2000/svg" viewBox="0 0 400 500">
  <!-- Left Arm (slender with small hoof) -->
  <g>
    <path d="M112 180 Q100 215 96 255 Q92 290 96 310 Q98 320 106 318 Q112 314 110 298 Q108 268 110 238 Q114 208 116 185 Z" fill="#F0D0A0" stroke="#333" stroke-width="3.5" stroke-linecap="round" stroke-linejoin="round"/>
    <!-- Lower leg lighter area -->
    <path d="M96 290 Q94 300 96 310 Q98 320 106 318 Q112 314 110 298 Q108 290 Z" fill="#E8C090" stroke="none"/>
    <!-- Hoof -->
    <ellipse cx="101" cy="320" rx="10" ry="7" fill="#6B4226" stroke="#333" stroke-width="3"/>
    <!-- Hoof split -->
    <line x1="101" y1="314" x2="101" y2="326" stroke="#333" stroke-width="2"/>
  </g>
  <!-- Right Arm (slender with small hoof) -->
  <g>
    <path d="M288 180 Q300 215 304 255 Q308 290 304 310 Q302 320 294 318 Q288 314 290 298 Q292 268 290 238 Q286 208 284 185 Z" fill="#F0D0A0" stroke="#333" stroke-width="3.5" stroke-linecap="round" stroke-linejoin="round"/>
    <!-- Lower leg lighter area -->
    <path d="M304 290 Q306 300 304 310 Q302 320 294 318 Q288 314 290 298 Q292 290 Z" fill="#E8C090" stroke="none"/>
    <!-- Hoof -->
    <ellipse cx="299" cy="320" rx="10" ry="7" fill="#6B4226" stroke="#333" stroke-width="3"/>
    <!-- Hoof split -->
    <line x1="299" y1="314" x2="299" y2="326" stroke="#333" stroke-width="2"/>
  </g>
</svg>