<svg xmlns="http://www.w3.org/2000/svg" viewBox="0 0 400 500">
  <!-- Left Arm (thick, stubby) -->
  <g>
    <path d="M105 175 Q85 210 80 250 Q75 285 85 310 Q90 325 105 322 Q118 318 115 300 Q112 270 115 240 Q118 210 115 180 Z" fill="#C8A87A" stroke="#333" stroke-width="3.5" stroke-linecap="round" stroke-linejoin="round"/>
    <!-- Stubby paw -->
    <ellipse cx="95" cy="322" rx="18" ry="12" fill="#B89868" stroke="#333" stroke-width="3"/>
    <!-- Toenails -->
    <circle cx="84" cy="320" r="4" fill="#DDD" stroke="#333" stroke-width="2"/>
    <circle cx="93" cy="316" r="4" fill="#DDD" stroke="#333" stroke-width="2"/>
    <circle cx="103" cy="318" r="4" fill="#DDD" stroke="#333" stroke-width="2"/>
  </g>
  <!-- Right Arm (thick, stubby) -->
  <g>
    <path d="M295 175 Q315 210 320 250 Q325 285 315 310 Q310 325 295 322 Q282 318 285 300 Q288 270 285 240 Q282 210 285 180 Z" fill="#C8A87A" stroke="#333" stroke-width="3.5" stroke-linecap="round" stroke-linejoin="round"/>
    <!-- Stubby paw -->
    <ellipse cx="305" cy="322" rx="18" ry="12" fill="#B89868" stroke="#333" stroke-width="3"/>
    <!-- Toenails -->
    <circle cx="316" cy="320" r="4" fill="#DDD" stroke="#333" stroke-width="2"/>
    <circle cx="307" cy="316" r="4" fill="#DDD" stroke="#333" stroke-width="2"/>
    <circle cx="297" cy="318" r="4" fill="#DDD" stroke="#333" stroke-width="2"/>
  </g>
</svg>