<svg xmlns="http://www.w3.org/2000/svg" viewBox="0 0 400 500">
  <!-- Left Wing-Arm (small, pink) -->
  <g>
    <path d="M115 190 Q96 210 88 238 Q80 260 84 278 Q88 292 100 288 Q110 282 106 262 Q104 240 108 220 Q114 202 118 192 Z" fill="#FF69B4" stroke="#333" stroke-width="3.5" stroke-linecap="round" stroke-linejoin="round"/>
    <!-- Feather detail lines -->
    <path d="M100 220 Q94 228 90 240" fill="none" stroke="#E8509A" stroke-width="2.5" stroke-linecap="round"/>
    <path d="M104 235 Q98 244 94 256" fill="none" stroke="#E8509A" stroke-width="2.5" stroke-linecap="round"/>
    <path d="M102 252 Q96 260 92 270" fill="none" stroke="#E8509A" stroke-width="2.5" stroke-linecap="round"/>
    <!-- Wing tip feathers -->
    <path d="M86 272 Q78 280 84 286 Q90 282 86 272" fill="#FF80C0" stroke="#333" stroke-width="2"/>
    <path d="M90 276 Q84 286 90 290 Q96 285 90 276" fill="#FF80C0" stroke="#333" stroke-width="2"/>
  </g>
  <!-- Right Wing-Arm -->
  <g>
    <path d="M285 190 Q304 210 312 238 Q320 260 316 278 Q312 292 300 288 Q290 282 294 262 Q296 240 292 220 Q286 202 282 192 Z" fill="#FF69B4" stroke="#333" stroke-width="3.5" stroke-linecap="round" stroke-linejoin="round"/>
    <!-- Feather detail lines -->
    <path d="M300 220 Q306 228 310 240" fill="none" stroke="#E8509A" stroke-width="2.5" stroke-linecap="round"/>
    <path d="M296 235 Q302 244 306 256" fill="none" stroke="#E8509A" stroke-width="2.5" stroke-linecap="round"/>
    <path d="M298 252 Q304 260 308 270" fill="none" stroke="#E8509A" stroke-width="2.5" stroke-linecap="round"/>
    <!-- Wing tip feathers -->
    <path d="M314 272 Q322 280 316 286 Q310 282 314 272" fill="#FF80C0" stroke="#333" stroke-width="2"/>
    <path d="M310 276 Q316 286 310 290 Q304 285 310 276" fill="#FF80C0" stroke="#333" stroke-width="2"/>
  </g>
</svg>