<svg xmlns="http://www.w3.org/2000/svg" viewBox="0 0 400 500">
  <!-- Gray Elephant Trunk dangling from snout y=150 down to y=260 -->
  <!-- Trunk fill shape -->
  <path d="M200,150 Q203,170 207,190 Q212,215 216,235 Q220,250 212,258 Q200,268 188,260 Q178,252 180,242 Q178,230 182,215 Q186,195 190,175 Q194,160 200,150 Z"
        fill="#C8A87A" stroke="none"/>
  <!-- Trunk outline -->
  <path d="M200,150 Q203,170 207,190 Q212,215 216,235 Q220,250 212,258 Q200,268 188,260 Q178,252 180,242 Q178,230 182,215 Q186,195 190,175 Q194,160 200,150"
        fill="none" stroke="#222" stroke-width="3.5" stroke-linecap="round" stroke-linejoin="round"/>
  <!-- Trunk wrinkle lines -->
  <path d="M193,178 Q200,181 208,177" fill="none" stroke="#A08860" stroke-width="2.5" stroke-linecap="round"/>
  <path d="M190,200 Q199,204 209,199" fill="none" stroke="#A08860" stroke-width="2.5" stroke-linecap="round"/>
  <path d="M186,225 Q196,229 212,224" fill="none" stroke="#A08860" stroke-width="2.5" stroke-linecap="round"/>
  <!-- Trunk tip (nostrils) -->
  <ellipse cx="194" cy="256" rx="6" ry="4" fill="#A08860" stroke="#222" stroke-width="2"/>
  <!-- Top attachment area - wider base -->
  <ellipse cx="200" cy="152" rx="14" ry="6" fill="#C8A87A" stroke="#222" stroke-width="2.5"/>
</svg>