<svg xmlns="http://www.w3.org/2000/svg" viewBox="0 0 400 500">
  <!-- Sparkly Spiral Unicorn Horn at top of head -->
  <!-- Horn shape - tall pointed cone -->
  <polygon points="200,20 182,100 218,100" fill="#FFD700" stroke="#222" stroke-width="3.5" stroke-linejoin="round"/>
  <!-- Spiral stripes (alternating gold and pink) -->
  <path d="M192,85 Q200,80 210,85" fill="none" stroke="#FF69B4" stroke-width="4" stroke-linecap="round"/>
  <path d="M189,72 Q200,66 212,72" fill="none" stroke="#FF69B4" stroke-width="3.5" stroke-linecap="round"/>
  <path d="M192,58 Q200,52 208,58" fill="none" stroke="#FF69B4" stroke-width="3" stroke-linecap="round"/>
  <path d="M195,44 Q200,40 205,44" fill="none" stroke="#FF69B4" stroke-width="2.5" stroke-linecap="round"/>
  <!-- Horn base -->
  <ellipse cx="200" cy="100" rx="20" ry="6" fill="#FFC200" stroke="#222" stroke-width="3"/>
  <!-- Sparkle stars around horn -->
  <!-- Star 1 -->
  <polygon points="170,45 172,40 174,45 172,50" fill="#FFD700" stroke="none"/>
  <polygon points="167,47 177,47 167,43 177,43" fill="#FFD700" stroke="none" transform="rotate(45,172,45)"/>
  <!-- Star 2 -->
  <polygon points="228,55 230,50 232,55 230,60" fill="#FF69B4" stroke="none"/>
  <polygon points="225,57 235,57 225,53 235,53" fill="#FF69B4" stroke="none" transform="rotate(45,230,55)"/>
  <!-- Star 3 -->
  <polygon points="160,70 162,65 164,70 162,75" fill="#FFD700" stroke="none"/>
  <!-- Twinkle dots -->
  <circle cx="235" cy="35" r="2.5" fill="#FFD700"/>
  <circle cx="165" cy="60" r="2" fill="#FF69B4"/>
  <circle cx="225" cy="80" r="2" fill="#FFD700"/>
  <circle cx="175" cy="90" r="1.5" fill="#FF69B4"/>
</svg>