<svg xmlns="http://www.w3.org/2000/svg" viewBox="0 0 400 500">
  <!-- Sparkly Spiral Unicorn Horn - tip at y=0, base at y=45 -->
  <!-- Horn shape - tall pointed cone -->
  <polygon points="200,0 182,45 218,45" fill="#FFD700" stroke="#222" stroke-width="3.5" stroke-linejoin="round"/>
  <!-- Spiral stripes (alternating gold and pink) -->
  <path d="M190,38 Q200,33 210,38" fill="none" stroke="#FF69B4" stroke-width="4" stroke-linecap="round"/>
  <path d="M187,28 Q200,22 213,28" fill="none" stroke="#FF69B4" stroke-width="3.5" stroke-linecap="round"/>
  <path d="M191,18 Q200,12 209,18" fill="none" stroke="#FF69B4" stroke-width="3" stroke-linecap="round"/>
  <path d="M195,8 Q200,4 205,8" fill="none" stroke="#FF69B4" stroke-width="2.5" stroke-linecap="round"/>
  <!-- Horn base -->
  <ellipse cx="200" cy="45" rx="20" ry="6" fill="#FFC200" stroke="#222" stroke-width="3"/>
  <!-- Sparkle stars around horn -->
  <polygon points="168,15 170,10 172,15 170,20" fill="#FFD700" stroke="none"/>
  <polygon points="165,17 175,17 165,13 175,13" fill="#FFD700" stroke="none" transform="rotate(45,170,15)"/>
  <polygon points="228,20 230,15 232,20 230,25" fill="#FF69B4" stroke="none"/>
  <polygon points="225,22 235,22 225,18 235,18" fill="#FF69B4" stroke="none" transform="rotate(45,230,20)"/>
  <polygon points="160,32 162,27 164,32 162,37" fill="#FFD700" stroke="none"/>
  <!-- Twinkle dots -->
  <circle cx="235" cy="8" r="2.5" fill="#FFD700"/>
  <circle cx="165" cy="25" r="2" fill="#FF69B4"/>
  <circle cx="225" cy="38" r="2" fill="#FFD700"/>
  <circle cx="175" cy="40" r="1.5" fill="#FF69B4"/>
</svg>