<svg xmlns="http://www.w3.org/2000/svg" viewBox="0 0 400 500">
  <!-- Deer Head - compact, upper canvas only -->
  <!-- Antlers -->
  <path d="M158,72 C155,52 152,32 145,18 C143,14 148,11 150,16 C155,28 158,42 160,55 M150,42 C142,32 135,25 128,24 C124,23 125,28 128,28 C138,30 145,38 150,42Z" fill="none" stroke="#A08050" stroke-width="4" stroke-linecap="round" stroke-linejoin="round"/>
  <path d="M148,50 C140,40 133,36 126,38 C122,39 124,43 128,42 C135,40 142,44 148,50Z" fill="none" stroke="#A08050" stroke-width="4" stroke-linecap="round" stroke-linejoin="round"/>
  <path d="M242,72 C245,52 248,32 255,18 C257,14 252,11 250,16 C245,28 242,42 240,55 M250,42 C258,32 265,25 272,24 C276,23 275,28 272,28 C262,30 255,38 250,42Z" fill="none" stroke="#A08050" stroke-width="4" stroke-linecap="round" stroke-linejoin="round"/>
  <path d="M252,50 C260,40 267,36 274,38 C278,39 276,43 272,42 C265,40 258,44 252,50Z" fill="none" stroke="#A08050" stroke-width="4" stroke-linecap="round" stroke-linejoin="round"/>

  <!-- Ears - tall pointed -->
  <path d="M120,98 C112,72 116,55 128,48 C138,44 145,55 148,75 C150,88 145,100 138,108Z" fill="#F0D0A0" stroke="#222" stroke-width="3.5"/>
  <path d="M126,85 C122,70 125,58 132,54 C138,52 142,60 144,75 C145,85 142,95 136,100Z" fill="#FFE8D0" stroke="none"/>
  <path d="M280,98 C288,72 284,55 272,48 C262,44 255,55 252,75 C250,88 255,100 262,108Z" fill="#F0D0A0" stroke="#222" stroke-width="3.5"/>
  <path d="M274,85 C278,70 275,58 268,54 C262,52 258,60 256,75 C255,85 258,95 264,100Z" fill="#FFE8D0" stroke="none"/>

  <!-- Head shape -->
  <path d="M135,130 C133,98 158,65 200,62 C242,65 267,98 265,130 C267,168 262,192 252,208 C242,220 222,226 200,228 C178,226 158,220 148,208 C138,192 133,168 135,130Z" fill="#F0D0A0" stroke="#222" stroke-width="3.5"/>

  <!-- Lighter face patch -->
  <path d="M160,155 C160,138 175,125 200,124 C225,125 240,138 240,155 C240,178 235,198 226,210 C218,218 210,222 200,222 C190,222 182,218 174,210 C165,198 160,178 160,155Z" fill="#FFF0E0" stroke="none"/>

  <!-- Eyes - big doe eyes -->
  <ellipse cx="172" cy="120" rx="17" ry="20" fill="#FFFFFF" stroke="#222" stroke-width="3"/>
  <ellipse cx="172" cy="124" rx="10" ry="12" fill="#4A2810"/>
  <ellipse cx="168" cy="117" rx="4" ry="5" fill="#FFFFFF"/>
  <ellipse cx="228" cy="120" rx="17" ry="20" fill="#FFFFFF" stroke="#222" stroke-width="3"/>
  <ellipse cx="228" cy="124" rx="10" ry="12" fill="#4A2810"/>
  <ellipse cx="224" cy="117" rx="4" ry="5" fill="#FFFFFF"/>

  <!-- Eyelashes -->
  <path d="M156,110 C158,105 162,103 165,102" fill="none" stroke="#222" stroke-width="2" stroke-linecap="round"/>
  <path d="M160,106 C162,102 165,100 168,100" fill="none" stroke="#222" stroke-width="2" stroke-linecap="round"/>
  <path d="M244,110 C242,105 238,103 235,102" fill="none" stroke="#222" stroke-width="2" stroke-linecap="round"/>
  <path d="M240,106 C238,102 235,100 232,100" fill="none" stroke="#222" stroke-width="2" stroke-linecap="round"/>

  <!-- Nose -->
  <ellipse cx="200" cy="178" rx="12" ry="9" fill="#4A3020" stroke="#222" stroke-width="2.5"/>
  <ellipse cx="197" cy="176" rx="3.5" ry="3" fill="#6A5040" opacity="0.5"/>

  <!-- Mouth -->
  <path d="M188,196 C194,204 197,207 200,207 C203,207 206,204 212,196" fill="none" stroke="#222" stroke-width="2.5" stroke-linecap="round"/>
  <line x1="200" y1="187" x2="200" y2="198" stroke="#222" stroke-width="2" stroke-linecap="round"/>

  <!-- Cheek blush -->
  <ellipse cx="152" cy="148" rx="10" ry="7" fill="#F0B0A0" opacity="0.4"/>
  <ellipse cx="248" cy="148" rx="10" ry="7" fill="#F0B0A0" opacity="0.4"/>

  <!-- Spots on forehead -->
  <circle cx="182" cy="90" r="4" fill="#C8A870" opacity="0.5"/>
  <circle cx="218" cy="90" r="4" fill="#C8A870" opacity="0.5"/>
  <circle cx="200" cy="82" r="3.5" fill="#C8A870" opacity="0.4"/>

</svg>