<svg xmlns="http://www.w3.org/2000/svg" viewBox="0 0 400 500">
  <!-- Elephant Head - compact, upper canvas only -->
  <!-- Floppy ears -->
  <path d="M95,105 C75,80 65,110 70,145 C75,175 92,190 108,185 C115,182 118,168 115,148 C112,125 105,110 95,105Z" fill="#C8A87A" stroke="#222" stroke-width="3.5"/>
  <path d="M100,115 C88,100 82,122 86,148 C90,168 100,178 108,174 C110,165 108,148 106,135 C104,122 102,112 100,115Z" fill="#E8C8A0" stroke="none"/>
  <path d="M305,105 C325,80 335,110 330,145 C325,175 308,190 292,185 C285,182 282,168 285,148 C288,125 295,110 305,105Z" fill="#C8A87A" stroke="#222" stroke-width="3.5"/>
  <path d="M300,115 C312,100 318,122 314,148 C310,168 300,178 292,174 C290,165 292,148 294,135 C296,122 298,112 300,115Z" fill="#E8C8A0" stroke="none"/>

  <!-- Head shape -->
  <path d="M128,130 C126,92 155,55 200,52 C245,55 274,92 272,130 C274,175 270,200 258,215 C245,228 225,234 200,235 C175,234 155,228 142,215 C130,200 126,175 128,130Z" fill="#C8A87A" stroke="#222" stroke-width="3.5"/>

  <!-- Eyes -->
  <ellipse cx="168" cy="115" rx="17" ry="19" fill="#FFFFFF" stroke="#222" stroke-width="3"/>
  <ellipse cx="168" cy="118" rx="10" ry="11" fill="#3A2820"/>
  <ellipse cx="164" cy="112" rx="4" ry="5" fill="#FFFFFF"/>
  <ellipse cx="232" cy="115" rx="17" ry="19" fill="#FFFFFF" stroke="#222" stroke-width="3"/>
  <ellipse cx="232" cy="118" rx="10" ry="11" fill="#3A2820"/>
  <ellipse cx="228" cy="112" rx="4" ry="5" fill="#FFFFFF"/>

  <!-- Eyebrows -->
  <path d="M152,98 C158,92 172,90 180,94" fill="none" stroke="#A88A5A" stroke-width="3" stroke-linecap="round"/>
  <path d="M220,94 C228,90 242,92 248,98" fill="none" stroke="#A88A5A" stroke-width="3" stroke-linecap="round"/>

  <!-- Trunk - stays within head zone, ending by y=248 -->
  <path d="M190,165 C188,175 186,190 188,205 C190,218 193,230 198,240 C202,248 208,248 212,240 C216,230 218,218 218,205 C220,190 218,175 216,165" fill="#C8A87A" stroke="#222" stroke-width="3.5"/>
  <path d="M194,168 C193,178 192,192 193,208 C194,222 197,234 200,240 C203,234 208,220 209,208 C210,192 209,178 208,168" fill="#E8C8A0" stroke="none"/>
  <!-- Trunk tip curl -->
  <path d="M212,240 C218,244 222,240 220,234" fill="none" stroke="#222" stroke-width="2.5" stroke-linecap="round"/>

  <!-- Smile on sides of trunk -->
  <path d="M162,170 C168,180 178,184 188,180" fill="none" stroke="#222" stroke-width="2.5" stroke-linecap="round"/>
  <path d="M238,170 C232,180 222,184 212,180" fill="none" stroke="#222" stroke-width="2.5" stroke-linecap="round"/>

  <!-- Cheek blush -->
  <ellipse cx="145" cy="148" rx="12" ry="8" fill="#E8B8A0" opacity="0.5"/>
  <ellipse cx="255" cy="148" rx="12" ry="8" fill="#E8B8A0" opacity="0.5"/>

  <!-- Forehead wrinkle -->
  <path d="M185,78 C192,74 200,73 208,74 C215,76 218,78 220,80" fill="none" stroke="#A88A5A" stroke-width="2" stroke-linecap="round"/>

  <!-- Neck stub -->
  <path d="M175,228 L170,415 C178,422 190,425 200,425 C210,425 222,422 230,415 L225,228Z" fill="#C8A87A" stroke="#222" stroke-width="3"/>
</svg>