<svg xmlns="http://www.w3.org/2000/svg" viewBox="0 0 400 500">
  <!-- Monkey Head - compact, upper canvas only -->
  <!-- Ears - big round -->
  <circle cx="118" cy="125" r="30" fill="#C8824A" stroke="#222" stroke-width="3.5"/>
  <circle cx="118" cy="125" r="18" fill="#F0C8A0" stroke="none"/>
  <circle cx="282" cy="125" r="30" fill="#C8824A" stroke="#222" stroke-width="3.5"/>
  <circle cx="282" cy="125" r="18" fill="#F0C8A0" stroke="none"/>

  <!-- Head shape -->
  <ellipse cx="200" cy="125" rx="80" ry="88" fill="#C8824A" stroke="#222" stroke-width="3.5"/>

  <!-- Hair tuft -->
  <path d="M178,42 C182,28 190,22 196,26 C194,20 200,14 208,18 C212,12 222,14 220,26 C228,22 232,30 226,38 C232,36 234,44 228,50" fill="#A86030" stroke="#222" stroke-width="2.5" stroke-linejoin="round"/>

  <!-- Face/muzzle area -->
  <ellipse cx="200" cy="158" rx="55" ry="48" fill="#F0D0A8" stroke="#222" stroke-width="2.5"/>

  <!-- Eyes -->
  <ellipse cx="175" cy="118" rx="17" ry="19" fill="#FFFFFF" stroke="#222" stroke-width="3"/>
  <ellipse cx="175" cy="121" rx="10" ry="11" fill="#3A2010"/>
  <ellipse cx="171" cy="115" rx="4" ry="5" fill="#FFFFFF"/>
  <ellipse cx="225" cy="118" rx="17" ry="19" fill="#FFFFFF" stroke="#222" stroke-width="3"/>
  <ellipse cx="225" cy="121" rx="10" ry="11" fill="#3A2010"/>
  <ellipse cx="221" cy="115" rx="4" ry="5" fill="#FFFFFF"/>

  <!-- Eyebrows -->
  <path d="M158,100 C165,94 180,93 190,96" fill="none" stroke="#A86030" stroke-width="3" stroke-linecap="round"/>
  <path d="M210,96 C220,93 235,94 242,100" fill="none" stroke="#A86030" stroke-width="3" stroke-linecap="round"/>

  <!-- Nostrils -->
  <ellipse cx="192" cy="152" rx="6" ry="5" fill="#A86030" stroke="#222" stroke-width="2"/>
  <ellipse cx="208" cy="152" rx="6" ry="5" fill="#A86030" stroke="#222" stroke-width="2"/>

  <!-- Mouth - big grin -->
  <path d="M174,172 C182,188 192,194 200,194 C208,194 218,188 226,172" fill="none" stroke="#222" stroke-width="3" stroke-linecap="round"/>
  <!-- Tongue -->
  <path d="M190,186 C194,194 200,196 206,194 C210,190 210,186 206,184 C202,182 198,182 194,184 C192,185 190,186 190,186Z" fill="#E87070" stroke="none"/>

  <!-- Cheek blush -->
  <ellipse cx="152" cy="148" rx="10" ry="7" fill="#E8A080" opacity="0.4"/>
  <ellipse cx="248" cy="148" rx="10" ry="7" fill="#E8A080" opacity="0.4"/>

  <!-- Neck stub -->
  <path d="M175,208 L170,415 C178,422 190,425 200,425 C210,425 222,422 230,415 L225,208Z" fill="#C8824A" stroke="#222" stroke-width="3"/>
</svg>