<svg xmlns="http://www.w3.org/2000/svg" viewBox="0 0 400 500">
  <!-- Tiger Head - compact, upper canvas only -->
  <!-- Ears -->
  <ellipse cx="138" cy="58" rx="30" ry="26" fill="#E8823A" stroke="#222" stroke-width="3.5" transform="rotate(-10, 138, 58)"/>
  <ellipse cx="138" cy="58" rx="17" ry="15" fill="#FFF0E0" stroke="none" transform="rotate(-10, 138, 58)"/>
  <ellipse cx="262" cy="58" rx="30" ry="26" fill="#E8823A" stroke="#222" stroke-width="3.5" transform="rotate(10, 262, 58)"/>
  <ellipse cx="262" cy="58" rx="17" ry="15" fill="#FFF0E0" stroke="none" transform="rotate(10, 262, 58)"/>

  <!-- Head shape - wobbly rounded -->
  <path d="M122,130 C120,90 148,52 200,50 C252,52 280,90 278,130 C280,170 272,195 258,208 C242,220 222,225 200,226 C178,225 158,220 142,208 C128,195 120,170 122,130Z" fill="#E8823A" stroke="#222" stroke-width="3.5"/>

  <!-- White cheek/muzzle -->
  <ellipse cx="200" cy="175" rx="55" ry="40" fill="#FFF5E8" stroke="none"/>

  <!-- Tiger stripes -->
  <path d="M148,82 C155,95 152,108 148,115" fill="none" stroke="#D06A28" stroke-width="4" stroke-linecap="round"/>
  <path d="M165,70 C170,85 167,100 164,108" fill="none" stroke="#D06A28" stroke-width="4" stroke-linecap="round"/>
  <path d="M252,82 C245,95 248,108 252,115" fill="none" stroke="#D06A28" stroke-width="4" stroke-linecap="round"/>
  <path d="M235,70 C230,85 233,100 236,108" fill="none" stroke="#D06A28" stroke-width="4" stroke-linecap="round"/>
  <path d="M193,58 C196,72 194,85 192,92" fill="none" stroke="#D06A28" stroke-width="3.5" stroke-linecap="round"/>
  <path d="M207,58 C204,72 206,85 208,92" fill="none" stroke="#D06A28" stroke-width="3.5" stroke-linecap="round"/>

  <!-- Eyes -->
  <ellipse cx="172" cy="120" rx="18" ry="20" fill="#FFFFFF" stroke="#222" stroke-width="3"/>
  <ellipse cx="172" cy="123" rx="11" ry="12" fill="#3A2010"/>
  <ellipse cx="168" cy="117" rx="4" ry="5" fill="#FFFFFF"/>
  <ellipse cx="228" cy="120" rx="18" ry="20" fill="#FFFFFF" stroke="#222" stroke-width="3"/>
  <ellipse cx="228" cy="123" rx="11" ry="12" fill="#3A2010"/>
  <ellipse cx="224" cy="117" rx="4" ry="5" fill="#FFFFFF"/>

  <!-- Nose -->
  <path d="M192,162 C194,155 206,155 208,162 C210,168 205,174 200,174 C195,174 190,168 192,162Z" fill="#D06A28" stroke="#222" stroke-width="2.5"/>

  <!-- Mouth -->
  <path d="M185,182 C190,193 195,197 200,197 C205,197 210,193 215,182" fill="none" stroke="#222" stroke-width="3" stroke-linecap="round"/>
  <line x1="200" y1="174" x2="200" y2="185" stroke="#222" stroke-width="2.5" stroke-linecap="round"/>

  <!-- Whisker dots -->
  <circle cx="178" cy="172" r="2" fill="#D06A28"/>
  <circle cx="174" cy="178" r="2" fill="#D06A28"/>
  <circle cx="222" cy="172" r="2" fill="#D06A28"/>
  <circle cx="226" cy="178" r="2" fill="#D06A28"/>

  <!-- Whiskers -->
  <line x1="135" y1="165" x2="165" y2="172" stroke="#222" stroke-width="2" stroke-linecap="round"/>
  <line x1="133" y1="178" x2="164" y2="178" stroke="#222" stroke-width="2" stroke-linecap="round"/>
  <line x1="265" y1="165" x2="235" y2="172" stroke="#222" stroke-width="2" stroke-linecap="round"/>
  <line x1="267" y1="178" x2="236" y2="178" stroke="#222" stroke-width="2" stroke-linecap="round"/>

</svg>